<svg xmlns="http://www.w3.org/2000/svg" viewBox="0 0 200 200" width="200" height="200">
  <rect x="0" y="0" width="200" height="200" rx="28" fill="#080700" stroke="#00F0FF" stroke-width="3"/>
  <rect x="4" y="4" width="192" height="192" rx="24" fill="none" stroke="#00F0FF" stroke-width="0.6" opacity="0.3"/>
  <!-- Corner marks MAGENTA -->
  <path d="M14,14 L14,30 M14,14 L30,14" stroke="#D9027D" stroke-width="3" fill="none" stroke-linecap="square"/>
  <path d="M186,14 L186,30 M186,14 L170,14" stroke="#D9027D" stroke-width="3" fill="none" stroke-linecap="square"/>
  <path d="M14,186 L14,170 M14,186 L30,186" stroke="#D9027D" stroke-width="3" fill="none" stroke-linecap="square"/>
  <path d="M186,186 L186,170 M186,186 L170,186" stroke="#D9027D" stroke-width="3" fill="none" stroke-linecap="square"/>
  <!-- N -->
  <line x1="28" y1="28" x2="28" y2="118" stroke="#FCEE0A" stroke-width="14" stroke-linecap="square"/>
  <line x1="72" y1="28" x2="72" y2="118" stroke="#FCEE0A" stroke-width="14" stroke-linecap="square"/>
  <line x1="28" y1="28" x2="72" y2="118" stroke="#FCEE0A" stroke-width="10" stroke-linecap="square"/>
  <!-- W -->
  <line x1="84" y1="28" x2="96" y2="118" stroke="#FCEE0A" stroke-width="11" stroke-linecap="square"/>
  <line x1="96" y1="118" x2="113" y2="62" stroke="#FCEE0A" stroke-width="11" stroke-linecap="square"/>
  <line x1="113" y1="62" x2="130" y2="118" stroke="#FCEE0A" stroke-width="11" stroke-linecap="square"/>
  <line x1="130" y1="118" x2="142" y2="28" stroke="#FCEE0A" stroke-width="11" stroke-linecap="square"/>
  <line x1="14" y1="132" x2="186" y2="132" stroke="#00F0FF" stroke-width="0.8" opacity="0.5"/>
  <!-- Eye CYAN -->
  <ellipse cx="85" cy="162" rx="48" ry="20" fill="none" stroke="#00F0FF" stroke-width="2"/>
  <circle cx="85" cy="162" r="12" fill="none" stroke="#00F0FF" stroke-width="1.6"/>
  <circle cx="85" cy="162" r="6" fill="#00F0FF" opacity="0.95"/>
  <circle cx="85" cy="162" r="2.5" fill="#080700"/>
  <line x1="36" y1="162" x2="50" y2="162" stroke="#00F0FF" stroke-width="1" opacity="0.5"/>
  <line x1="120" y1="162" x2="134" y2="162" stroke="#00F0FF" stroke-width="1" opacity="0.5"/>
</svg>
